<!--?xml version="1.0" encoding="UTF-8" standalone="no"?-->
<svg id="animation-svg" xmlns:dc="http://purl.org/dc/elements/1.1/" xmlns:cc="http://creativecommons.org/ns#" xmlns:rdf="http://www.w3.org/1999/02/22-rdf-syntax-ns#" xmlns:svg="http://www.w3.org/2000/svg" xmlns="http://www.w3.org/2000/svg" id="svg81" version="1.1" viewBox="0 0 59.10131 31.14524"  style="" class="">
  <defs id="defs75"></defs>
  <metadata id="metadata78">
    <rdf:rdf>
      <cc:work rdf:about="">
        <dc:format>image/svg+xml</dc:format>
        <dc:type rdf:resource="http://purl.org/dc/dcmitype/StillImage"></dc:type>
        <dc:title></dc:title>
      </cc:work>
    </rdf:rdf>
  </metadata>
  <g style="display:inline" id="g224">
    <g id="g293">
      <g id="flowRoot210" style="font-style:normal;font-variant:normal;font-weight:normal;font-stretch:normal;font-size:40px;line-height:1.25;font-family:Iceland;-inkscape-font-specification:Iceland;letter-spacing:0px;word-spacing:0px;fill:none;fill-opacity:1;stroke:#ffffff;stroke-opacity:1" transform="scale(0.26458333)"></g>
      <g aria-label="Tokyo" style="font-style:normal;font-weight:normal;font-size:16.93333244px;line-height:1.25;font-family:sans-serif;letter-spacing:0.03704167px;word-spacing:0px;fill:none;fill-opacity:1;stroke:#ffffff;stroke-width:0.26458332;stroke-opacity:1" id="text214">
        <path d="m 7.5336756,4.8337493 h -2.301875 v 6.6674997 h -1.27 V 4.8337493 h -2.301875 v -1.11125 h 5.87375 z" style="font-style:normal;font-variant:normal;font-weight:normal;font-stretch:normal;font-size:15.875px;font-family:Iceland;-inkscape-font-specification:Iceland;letter-spacing:0.03704167px;fill:none;stroke:#ffffff;stroke-width:0.26458332;stroke-opacity:1" id="path226" class="EyiYkzVH_0"></path>
        <path d="m 14.331235,10.389999 q 0,0.460375 -0.333375,0.79375 -0.3175,0.3175 -0.777875,0.3175 H 9.8862348 q -0.460375,0 -0.79375,-0.3175 -0.3175,-0.333375 -0.3175,-0.79375 V 7.0562493 q 0,-0.460375 0.3175,-0.777875 0.333375,-0.333375 0.79375,-0.333375 h 3.3337502 q 0.460375,0 0.777875,0.333375 0.333375,0.3175 0.333375,0.777875 z m -1.11125,0.15875 V 6.8974993 H 9.8862348 v 3.6512497 z" style="font-style:normal;font-variant:normal;font-weight:normal;font-stretch:normal;font-size:15.875px;font-family:Iceland;-inkscape-font-specification:Iceland;letter-spacing:0.03704167px;fill:none;stroke:#ffffff;stroke-width:0.26458332;stroke-opacity:1" id="path228" class="EyiYkzVH_1"></path>
        <path d="m 22.626997,5.9449993 -2.524125,2.206625 v 0.15875 h 1.095375 q 0.460375,0 0.777875,0.333375 0.333375,0.3175 0.333375,0.777875 v 2.0796247 h -1.11125 V 9.1199993 h -3.33375 v 2.3812497 h -1.11125 V 3.4049993 l 1.11125,-1.11125 v 6.683375 l 3.413125,-3.032125 z" style="font-style:normal;font-variant:normal;font-weight:normal;font-stretch:normal;font-size:15.875px;font-family:Iceland;-inkscape-font-specification:Iceland;letter-spacing:0.03704167px;fill:none;stroke:#ffffff;stroke-width:0.26458332;stroke-opacity:1" id="path230" class="EyiYkzVH_2"></path>
        <path d="m 29.97026,13.723749 q 0,0.460375 -0.333375,0.777875 -0.3175,0.333375 -0.777875,0.333375 h -4.60375 l 0.9525,-0.9525 h 3.65125 v -3.175 l -0.79375,0.79375 h -2.54 q -0.460375,0 -0.79375,-0.3175 -0.3175,-0.333375 -0.3175,-0.79375 V 5.9449993 h 1.11125 v 4.6037497 h 3.33375 V 5.9449993 h 1.11125 z" style="font-style:normal;font-variant:normal;font-weight:normal;font-stretch:normal;font-size:15.875px;font-family:Iceland;-inkscape-font-specification:Iceland;letter-spacing:0.03704167px;fill:none;stroke:#ffffff;stroke-width:0.26458332;stroke-opacity:1" id="path232" class="EyiYkzVH_3"></path>
        <path d="m 37.851784,10.389999 q 0,0.460375 -0.333375,0.79375 -0.3175,0.3175 -0.777875,0.3175 h -3.33375 q -0.460375,0 -0.79375,-0.3175 -0.3175,-0.333375 -0.3175,-0.79375 V 7.0562493 q 0,-0.460375 0.3175,-0.777875 0.333375,-0.333375 0.79375,-0.333375 h 3.33375 q 0.460375,0 0.777875,0.333375 0.333375,0.3175 0.333375,0.777875 z m -1.11125,0.15875 V 6.8974993 h -3.33375 v 3.6512497 z" style="font-style:normal;font-variant:normal;font-weight:normal;font-stretch:normal;font-size:15.875px;font-family:Iceland;-inkscape-font-specification:Iceland;letter-spacing:0.03704167px;fill:none;stroke:#ffffff;stroke-width:0.26458332;stroke-opacity:1" id="path234" class="EyiYkzVH_4"></path>
      </g>
      <g aria-label="NIGHT" style="font-style:normal;font-weight:normal;font-size:16.93333244px;line-height:1.25;font-family:sans-serif;letter-spacing:0.03704167px;word-spacing:0px;fill:none;fill-opacity:1;stroke:#ffffff;stroke-width:0.26458332;stroke-opacity:1" id="text218">
        <path d="m 7.493068,20.125129 h -1.778 l -2.4129999,-5.2705 h -0.508 l 0.381,0.635 v 4.6355 h -1.016 v -6.223 h 1.7907 l 2.4002999,5.2705 h 0.508 l -0.381,-0.635 v -4.6355 h 1.016 z" style="font-style:normal;font-variant:normal;font-weight:normal;font-stretch:normal;font-size:12.69999981px;font-family:Iceland;-inkscape-font-specification:Iceland;letter-spacing:0.27781251px;fill:none;stroke:#ffffff;stroke-width:0.26458332;stroke-opacity:1" id="path237" class="EyiYkzVH_5"></path>
        <path d="m 11.067919,20.137829 h -1.016 v -6.223 h 1.016 z" style="font-style:normal;font-variant:normal;font-weight:normal;font-stretch:normal;font-size:12.69999981px;font-family:Iceland;-inkscape-font-specification:Iceland;letter-spacing:0.27781251px;fill:none;stroke:#ffffff;stroke-width:0.26458332;stroke-opacity:1" id="path239" class="EyiYkzVH_6"></path>
        <path d="m 18.899255,20.137829 h -1.016 v -0.762 l -0.762,0.762 h -2.666999 q -0.3556,0 -0.6223,-0.2667 -0.2667,-0.2667 -0.2667,-0.6223 v -4.445 q 0,-0.3556 0.2667,-0.6223 0.2667,-0.2667 0.6223,-0.2667 h 4.444999 v 0.889 h -4.317999 v 4.445 h 3.301999 v -1.778 h -1.650999 l 0.888999,-0.889 h 1.778 z" style="font-style:normal;font-variant:normal;font-weight:normal;font-stretch:normal;font-size:12.69999981px;font-family:Iceland;-inkscape-font-specification:Iceland;letter-spacing:0.27781251px;fill:none;stroke:#ffffff;stroke-width:0.26458332;stroke-opacity:1" id="path241" class="EyiYkzVH_7"></path>
        <path d="m 26.483537,20.137829 h -1.016 v -2.667 h -3.302 v 2.667 h -1.016 v -6.223 h 1.016 v 3.429 l 0.762,-0.762 h 2.54 v -2.667 h 1.016 z" style="font-style:normal;font-variant:normal;font-weight:normal;font-stretch:normal;font-size:12.69999981px;font-family:Iceland;-inkscape-font-specification:Iceland;letter-spacing:0.27781251px;fill:none;stroke:#ffffff;stroke-width:0.26458332;stroke-opacity:1" id="path243" class="EyiYkzVH_8"></path>
        <path d="m 32.661888,14.803829 h -1.8415 v 5.334 h -1.016 v -5.334 h -1.8415 v -0.889 h 4.699 z" style="font-style:normal;font-variant:normal;font-weight:normal;font-stretch:normal;font-size:12.69999981px;font-family:Iceland;-inkscape-font-specification:Iceland;letter-spacing:0.27781251px;fill:none;stroke:#ffffff;stroke-width:0.26458332;stroke-opacity:1" id="path245" class="EyiYkzVH_9"></path>
      </g>
      <g aria-label="MikuLive." style="font-style:normal;font-weight:normal;font-size:16.93333244px;line-height:1.25;font-family:sans-serif;letter-spacing:0.03704167px;word-spacing:0px;fill:none;fill-opacity:1;stroke:#ffffff;stroke-width:0.26458332;stroke-opacity:1" id="text222">
        <path d="m 9.3768448,29.774605 h -1.27 v -5.842 l 0.47625,-0.79375 h -0.714375 l -1.952625,4.429125 h -0.92075 l -1.889125,-4.429125 h -0.714375 l 0.47625,0.79375 v 5.842 h -1.27 V 22.01173 h 2.270125 l 1.571625,3.71475 h 0.15875 l 1.571625,-3.71475 h 2.206625 z" style="font-style:normal;font-variant:normal;font-weight:normal;font-stretch:normal;font-size:15.875px;font-family:Iceland;-inkscape-font-specification:Iceland;letter-spacing:0.03704167px;fill:none;stroke:#ffffff;stroke-width:0.26458332;stroke-opacity:1" id="path248" class="EyiYkzVH_10"></path>
        <path d="m 13.063896,23.28173 h -1.11125 v -1.27 h 1.11125 z m 0,6.50875 h -1.11125 v -4.7625 l 1.11125,-1.11125 z" style="font-style:normal;font-variant:normal;font-weight:normal;font-stretch:normal;font-size:15.875px;font-family:Iceland;-inkscape-font-specification:Iceland;letter-spacing:0.03704167px;fill:none;stroke:#ffffff;stroke-width:0.26458332;stroke-opacity:1" id="path250" class="EyiYkzVH_11"></path>
        <path d="m 21.370821,24.23423 -2.524125,2.206625 v 0.15875 h 1.095375 q 0.460375,0 0.777875,0.333375 0.333375,0.3175 0.333375,0.777875 v 2.079625 h -1.11125 v -2.38125 h -3.33375 v 2.38125 h -1.11125 v -8.09625 l 1.11125,-1.11125 v 6.683375 l 3.413125,-3.032125 z" style="font-style:normal;font-variant:normal;font-weight:normal;font-stretch:normal;font-size:15.875px;font-family:Iceland;-inkscape-font-specification:Iceland;letter-spacing:0.03704167px;fill:none;stroke:#ffffff;stroke-width:0.26458332;stroke-opacity:1" id="path252" class="EyiYkzVH_12"></path>
        <path d="m 28.714084,29.79048 h -1.11125 v -0.79375 l -0.79375,0.79375 h -2.54 q -0.460375,0 -0.79375,-0.3175 -0.3175,-0.333375 -0.3175,-0.79375 v -4.445 h 1.11125 v 4.60375 h 3.33375 v -4.60375 h 1.11125 z" style="font-style:normal;font-variant:normal;font-weight:normal;font-stretch:normal;font-size:15.875px;font-family:Iceland;-inkscape-font-specification:Iceland;letter-spacing:0.03704167px;fill:none;stroke:#ffffff;stroke-width:0.26458332;stroke-opacity:1" id="path254" class="EyiYkzVH_13"></path>
        <path d="m 36.851095,29.79048 h -5.55625 v -7.77875 h 1.27 v 6.6675 h 3.01625 v -1.11125 h 1.27 z" style="font-style:normal;font-variant:normal;font-weight:normal;font-stretch:normal;font-size:15.875px;font-family:Iceland;-inkscape-font-specification:Iceland;letter-spacing:0.03704167px;fill:none;stroke:#ffffff;stroke-width:0.26458332;stroke-opacity:1" id="path256" class="EyiYkzVH_14"></path>
        <path d="m 39.256984,23.28173 h -1.11125 v -1.27 h 1.11125 z m 0,6.50875 h -1.11125 v -4.7625 l 1.11125,-1.11125 z" style="font-style:normal;font-variant:normal;font-weight:normal;font-stretch:normal;font-size:15.875px;font-family:Iceland;-inkscape-font-specification:Iceland;letter-spacing:0.03704167px;fill:none;stroke:#ffffff;stroke-width:0.26458332;stroke-opacity:1" id="path258" class="EyiYkzVH_15"></path>
        <path d="m 46.690786,24.23423 -2.159,5.55625 h -1.61925 l -2.0955,-5.55625 h 1.27 l 1.508125,4.6355 h 0.3175 l 1.508125,-4.6355 z" style="font-style:normal;font-variant:normal;font-weight:normal;font-stretch:normal;font-size:15.875px;font-family:Iceland;-inkscape-font-specification:Iceland;letter-spacing:0.03704167px;fill:none;stroke:#ffffff;stroke-width:0.26458332;stroke-opacity:1" id="path260" class="EyiYkzVH_16"></path>
        <path d="m 53.790962,29.79048 h -4.445 q -0.460375,0 -0.79375,-0.3175 -0.3175,-0.333375 -0.3175,-0.79375 v -3.33375 q 0,-0.460375 0.3175,-0.777875 0.333375,-0.333375 0.79375,-0.333375 h 3.33375 q 0.460375,0 0.777875,0.333375 0.333375,0.3175 0.333375,0.777875 v 1.11125 l -1.11125,1.11125 h -3.175 l 0.9525,-0.9525 h 2.2225 v -1.42875 h -3.33375 v 3.65125 h 4.445 z" style="font-style:normal;font-variant:normal;font-weight:normal;font-stretch:normal;font-size:15.875px;font-family:Iceland;-inkscape-font-specification:Iceland;letter-spacing:0.03704167px;fill:none;stroke:#ffffff;stroke-width:0.26458332;stroke-opacity:1" id="path262" class="EyiYkzVH_17"></path>
        <path d="m 57.176635,29.79048 h -1.42875 v -1.27 h 1.42875 z" style="font-style:normal;font-variant:normal;font-weight:normal;font-stretch:normal;font-size:15.875px;font-family:Iceland;-inkscape-font-specification:Iceland;letter-spacing:0.03704167px;fill:none;stroke:#ffffff;stroke-width:0.26458332;stroke-opacity:1" id="path264" class="EyiYkzVH_18"></path>
      </g>
    </g>
  </g>
<style data-made-with="vivus-instant">.EyiYkzVH_0{stroke-dasharray:28 30;stroke-dashoffset:29;}.start .EyiYkzVH_0{animation:EyiYkzVH_draw 1333ms ease-in 0ms forwards;}.EyiYkzVH_1{stroke-dasharray:35 37;stroke-dashoffset:36;}.start .EyiYkzVH_1{animation:EyiYkzVH_draw 1333ms ease-in 37ms forwards;}.EyiYkzVH_2{stroke-dasharray:42 44;stroke-dashoffset:43;}.start .EyiYkzVH_2{animation:EyiYkzVH_draw 1333ms ease-in 74ms forwards;}.EyiYkzVH_3{stroke-dasharray:47 49;stroke-dashoffset:48;}.start .EyiYkzVH_3{animation:EyiYkzVH_draw 1333ms ease-in 111ms forwards;}.EyiYkzVH_4{stroke-dasharray:35 37;stroke-dashoffset:36;}.start .EyiYkzVH_4{animation:EyiYkzVH_draw 1333ms ease-in 148ms forwards;}.EyiYkzVH_5{stroke-dasharray:42 44;stroke-dashoffset:43;}.start .EyiYkzVH_5{animation:EyiYkzVH_draw 1333ms ease-in 185ms forwards;}.EyiYkzVH_6{stroke-dasharray:15 17;stroke-dashoffset:16;}.start .EyiYkzVH_6{animation:EyiYkzVH_draw 1333ms ease-in 222ms forwards;}.EyiYkzVH_7{stroke-dasharray:41 43;stroke-dashoffset:42;}.start .EyiYkzVH_7{animation:EyiYkzVH_draw 1333ms ease-in 259ms forwards;}.EyiYkzVH_8{stroke-dasharray:35 37;stroke-dashoffset:36;}.start .EyiYkzVH_8{animation:EyiYkzVH_draw 1333ms ease-in 296ms forwards;}.EyiYkzVH_9{stroke-dasharray:22 24;stroke-dashoffset:23;}.start .EyiYkzVH_9{animation:EyiYkzVH_draw 1333ms ease-in 333ms forwards;}.EyiYkzVH_10{stroke-dasharray:57 59;stroke-dashoffset:58;}.start .EyiYkzVH_10{animation:EyiYkzVH_draw 1333ms ease-in 370ms forwards;}.EyiYkzVH_11{stroke-dasharray:19 21;stroke-dashoffset:20;}.start .EyiYkzVH_11{animation:EyiYkzVH_draw 1333ms ease-in 407ms forwards;}.EyiYkzVH_12{stroke-dasharray:42 44;stroke-dashoffset:43;}.start .EyiYkzVH_12{animation:EyiYkzVH_draw 1333ms ease-in 444ms forwards;}.EyiYkzVH_13{stroke-dasharray:33 35;stroke-dashoffset:34;}.start .EyiYkzVH_13{animation:EyiYkzVH_draw 1333ms ease-in 481ms forwards;}.EyiYkzVH_14{stroke-dasharray:29 31;stroke-dashoffset:30;}.start .EyiYkzVH_14{animation:EyiYkzVH_draw 1333ms ease-in 518ms forwards;}.EyiYkzVH_15{stroke-dasharray:19 21;stroke-dashoffset:20;}.start .EyiYkzVH_15{animation:EyiYkzVH_draw 1333ms ease-in 555ms forwards;}.EyiYkzVH_16{stroke-dasharray:27 29;stroke-dashoffset:28;}.start .EyiYkzVH_16{animation:EyiYkzVH_draw 1333ms ease-in 592ms forwards;}.EyiYkzVH_17{stroke-dasharray:40 42;stroke-dashoffset:41;}.start .EyiYkzVH_17{animation:EyiYkzVH_draw 1333ms ease-in 629ms forwards;}.EyiYkzVH_18{stroke-dasharray:6 8;stroke-dashoffset:7;}.start .EyiYkzVH_18{animation:EyiYkzVH_draw 1333ms ease-in 666ms forwards;}@keyframes EyiYkzVH_draw{100%{stroke-dashoffset:0;}}@keyframes EyiYkzVH_fade{0%{stroke-opacity:1;}93.54838709677419%{stroke-opacity:1;}100%{stroke-opacity:0;}}</style></svg>
